<svg xmlns="http://www.w3.org/2000/svg" width="303" height="205" viewBox="0 0 303 205" version="1.1"><path d="M 191.500 33.081 C 185.450 35.284, 171.500 40.259, 160.500 44.137 C 149.500 48.015, 140.145 51.523, 139.711 51.933 C 139.277 52.343, 147.206 56.751, 157.331 61.730 L 175.739 70.783 189.120 67.129 L 202.500 63.475 204.715 56.987 C 208.063 47.179, 207.588 29.834, 203.956 29.294 C 203.155 29.174, 197.550 30.879, 191.500 33.081 M 102.828 43.750 C 102.069 45.893, 101.513 51.571, 101.531 57 C 101.567 67.695, 103.310 74.297, 108.344 82.798 C 111.101 87.455, 111.784 88.024, 113.990 87.496 C 129.696 83.739, 172.880 71.503, 172.283 70.979 C 170.964 69.821, 106.450 40, 105.265 40 C 104.654 40, 103.558 41.688, 102.828 43.750 M 201.500 65.512 C 197.100 66.779, 177.300 72.165, 157.500 77.480 C 137.700 82.795, 119.700 87.750, 117.500 88.493 C 114.029 89.664, 119.937 89.853, 162.152 89.921 L 210.804 90 211.854 86.990 C 213.465 82.367, 214.321 72.628, 213.561 67.559 C 212.761 62.224, 212.858 62.240, 201.500 65.512 M 100 93.106 C 100 96.318, 103.557 107.230, 106.264 112.326 C 110.270 119.865, 120.306 129.058, 129.435 133.550 C 157.717 147.466, 193.403 136.477, 206.368 109.858 C 208.339 105.811, 210.245 100.138, 210.604 97.250 L 211.258 92 155.629 92 C 115.666 92, 100 92.311, 100 93.106 M 101.244 142.250 C 101.469 142.938, 103.194 143.645, 105.077 143.821 C 106.960 143.998, 108.927 144.561, 109.450 145.071 C 110.917 146.505, 205.308 146.292, 206.748 144.852 C 207.380 144.220, 209.120 143.658, 210.616 143.602 C 212.112 143.546, 213.522 142.938, 213.751 142.250 C 214.080 141.260, 202.388 141, 157.500 141 C 112.614 141, 100.919 141.260, 101.244 142.250 M 50.424 184.338 C 49.525 186.681, 50.454 201.500, 51.500 201.500 C 52.050 201.500, 52.640 199.813, 52.810 197.750 C 53.037 195.011, 53.576 194.004, 54.810 194.015 C 57.423 194.039, 58.766 195.269, 59.149 197.990 C 59.354 199.440, 60.271 200.627, 61.347 200.832 C 62.883 201.125, 63.060 200.791, 62.397 198.842 C 61.959 197.554, 61.677 194.270, 61.770 191.545 C 61.985 185.259, 60.146 183, 54.814 183 C 52.498 183, 50.730 183.539, 50.424 184.338 M 72.424 184.338 C 72.141 185.075, 72.043 189.237, 72.205 193.588 L 72.500 201.500 77.917 201.500 C 81.361 201.500, 83.485 201.045, 83.750 200.250 C 84.043 199.371, 82.806 199, 79.583 199 C 75.391 199, 75 198.792, 75 196.560 C 75 194.473, 75.531 194.076, 78.673 193.810 C 83.948 193.365, 84.294 191, 79.083 191 C 75.420 191, 75 190.749, 75 188.557 C 75 186.407, 75.499 186.078, 79.172 185.807 C 81.467 185.638, 83.530 184.938, 83.756 184.250 C 84.354 182.430, 73.122 182.517, 72.424 184.338 M 94.750 184.080 C 90.962 186.286, 94.185 193, 99.031 193 C 99.904 193, 101.474 193.626, 102.521 194.392 C 104.181 195.606, 104.245 196, 103.019 197.477 C 101.635 199.145, 99.534 199.145, 94.250 197.477 C 90.533 196.304, 91.605 198.937, 95.508 200.568 C 99.785 202.355, 103.589 201.557, 105.628 198.444 C 107.747 195.211, 106.007 192.382, 100.972 190.873 C 95.902 189.354, 94.431 187.717, 96.554 185.956 C 97.840 184.888, 98.780 184.880, 101.641 185.915 C 105.689 187.378, 107.403 186.499, 104.557 184.418 C 102.312 182.776, 97.286 182.603, 94.750 184.080 M 114 184.500 C 114 185.500, 115 186, 117 186 L 120 186 120 193.441 C 120 200.554, 121.106 203.772, 122.395 200.412 C 122.728 199.546, 123 195.948, 123 192.418 C 123 186.239, 123.093 186, 125.500 186 C 127.056 186, 128 185.433, 128 184.500 C 128 183.310, 126.556 183, 121 183 C 115.444 183, 114 183.310, 114 184.500 M 137.084 191.581 C 134.799 197.597, 134.125 200.525, 134.856 201.256 C 135.587 201.987, 136.270 201.502, 137.113 199.652 C 138.051 197.592, 139.031 197, 141.500 197 C 143.969 197, 144.949 197.592, 145.887 199.652 C 146.654 201.335, 147.444 201.956, 148.050 201.350 C 149.144 200.256, 143.127 183.876, 141.421 183.307 C 140.838 183.113, 138.887 186.836, 137.084 191.581 M 157 190.345 C 157 196.088, 157.382 198.025, 158.750 199.227 C 162.948 202.913, 168.763 202.011, 170.890 197.343 C 172.479 193.855, 172.369 182.712, 170.750 183.245 C 169.987 183.497, 169.305 186.271, 169 190.366 C 168.362 198.933, 165.394 201.394, 161 197 C 159.444 195.444, 159 193.667, 159 189 C 159 185.667, 158.556 183, 158 183 C 157.424 183, 157 186.115, 157 190.345 M 182.424 184.338 C 181.525 186.681, 182.454 201.500, 183.500 201.500 C 184.050 201.500, 184.640 199.813, 184.810 197.750 C 185.046 194.906, 185.560 194, 186.938 194 C 189.056 194, 190.632 195.679, 191.154 198.489 C 191.357 199.582, 192.323 200.631, 193.301 200.819 C 194.785 201.105, 194.967 200.695, 194.401 198.331 C 194.029 196.774, 193.362 195.035, 192.919 194.466 C 192.477 193.898, 192.532 192.773, 193.042 191.966 C 194.526 189.620, 194.147 186.443, 192.171 184.655 C 189.961 182.655, 183.154 182.434, 182.424 184.338 M 206.120 191.639 C 204.052 197.316, 203.288 200.688, 203.926 201.326 C 204.564 201.964, 205.325 201.381, 206.113 199.652 C 207.051 197.592, 208.031 197, 210.500 197 C 212.969 197, 213.949 197.592, 214.887 199.652 C 215.654 201.335, 216.444 201.956, 217.050 201.350 C 218.158 200.242, 212.117 183.872, 210.387 183.296 C 209.785 183.095, 207.865 186.850, 206.120 191.639 M 226.526 184.088 C 225.552 186.598, 226.386 201.500, 227.500 201.500 C 228.050 201.500, 228.635 198.632, 228.801 195.127 L 229.102 188.754 233.584 195.127 C 236.050 198.632, 238.502 201.650, 239.034 201.833 C 239.611 202.033, 240 198.314, 240 192.583 C 240 186.861, 239.597 183, 239 183 C 238.446 183, 237.976 185.786, 237.946 189.250 L 237.893 195.500 235.196 192.115 C 228.358 183.530, 227.170 182.430, 226.526 184.088 M 250.694 183.639 C 249.567 184.766, 251.043 186, 253.517 186 C 255.817 186, 255.928 186.318, 256.208 193.750 C 256.582 203.681, 258.403 203.510, 258.792 193.507 C 259.073 186.280, 259.176 186, 261.542 186 C 263.060 186, 264 185.426, 264 184.500 C 264 183.325, 262.630 183, 257.667 183 C 254.183 183, 251.046 183.288, 250.694 183.639 M 53 188.375 C 53 191.375, 54.291 192.360, 57.067 191.479 C 60.211 190.481, 59.242 186.585, 55.750 186.184 C 53.397 185.913, 53 186.229, 53 188.375 M 185 188.934 C 185 191.193, 185.460 191.996, 186.750 191.985 C 191.689 191.941, 192.578 186.742, 187.741 186.184 C 185.280 185.899, 185 186.180, 185 188.934 M 140.225 191.405 C 139.169 193.722, 139.255 194, 141.021 194 C 143.132 194, 143.277 193.562, 142.133 190.655 C 141.482 189, 141.286 189.077, 140.225 191.405 M 209.195 191.472 C 208.174 193.712, 208.268 194, 210.021 194 C 212.079 194, 212.554 192.421, 211.158 190.222 C 210.570 189.294, 210.031 189.637, 209.195 191.472" stroke="none" fill="#242424" fill-rule="evenodd"/><path d="M -0 102.503 L -0 205.006 151.750 204.753 L 303.500 204.500 303.755 102.250 L 304.009 0 152.005 0 L 0 0 -0 102.503 M 0.481 103 C 0.481 159.375, 0.602 182.437, 0.750 154.250 C 0.897 126.062, 0.897 79.937, 0.750 51.750 C 0.602 23.562, 0.481 46.625, 0.481 103 M 191.500 33.081 C 185.450 35.284, 171.500 40.259, 160.500 44.137 C 149.500 48.015, 140.145 51.523, 139.711 51.933 C 139.277 52.343, 147.206 56.751, 157.331 61.730 L 175.739 70.783 189.120 67.129 L 202.500 63.475 204.715 56.987 C 208.063 47.179, 207.588 29.834, 203.956 29.294 C 203.155 29.174, 197.550 30.879, 191.500 33.081 M 102.828 43.750 C 102.069 45.893, 101.513 51.571, 101.531 57 C 101.567 67.695, 103.310 74.297, 108.344 82.798 C 111.101 87.455, 111.784 88.024, 113.990 87.496 C 129.696 83.739, 172.880 71.503, 172.283 70.979 C 170.964 69.821, 106.450 40, 105.265 40 C 104.654 40, 103.558 41.688, 102.828 43.750 M 201.500 65.512 C 197.100 66.779, 177.300 72.165, 157.500 77.480 C 137.700 82.795, 119.700 87.750, 117.500 88.493 C 114.029 89.664, 119.937 89.853, 162.152 89.921 L 210.804 90 211.854 86.990 C 213.465 82.367, 214.321 72.628, 213.561 67.559 C 212.761 62.224, 212.858 62.240, 201.500 65.512 M 100 93.106 C 100 96.318, 103.557 107.230, 106.264 112.326 C 110.270 119.865, 120.306 129.058, 129.435 133.550 C 157.717 147.466, 193.403 136.477, 206.368 109.858 C 208.339 105.811, 210.245 100.138, 210.604 97.250 L 211.258 92 155.629 92 C 115.666 92, 100 92.311, 100 93.106 M 101.244 142.250 C 101.469 142.938, 103.194 143.645, 105.077 143.821 C 106.960 143.998, 108.927 144.561, 109.450 145.071 C 110.917 146.505, 205.308 146.292, 206.748 144.852 C 207.380 144.220, 209.120 143.658, 210.616 143.602 C 212.112 143.546, 213.522 142.938, 213.751 142.250 C 214.080 141.260, 202.388 141, 157.500 141 C 112.614 141, 100.919 141.260, 101.244 142.250 M 50.424 184.338 C 49.525 186.681, 50.454 201.500, 51.500 201.500 C 52.050 201.500, 52.640 199.813, 52.810 197.750 C 53.037 195.011, 53.576 194.004, 54.810 194.015 C 57.423 194.039, 58.766 195.269, 59.149 197.990 C 59.354 199.440, 60.271 200.627, 61.347 200.832 C 62.883 201.125, 63.060 200.791, 62.397 198.842 C 61.959 197.554, 61.677 194.270, 61.770 191.545 C 61.985 185.259, 60.146 183, 54.814 183 C 52.498 183, 50.730 183.539, 50.424 184.338 M 72.424 184.338 C 72.141 185.075, 72.043 189.237, 72.205 193.588 L 72.500 201.500 77.917 201.500 C 81.361 201.500, 83.485 201.045, 83.750 200.250 C 84.043 199.371, 82.806 199, 79.583 199 C 75.391 199, 75 198.792, 75 196.560 C 75 194.473, 75.531 194.076, 78.673 193.810 C 83.948 193.365, 84.294 191, 79.083 191 C 75.420 191, 75 190.749, 75 188.557 C 75 186.407, 75.499 186.078, 79.172 185.807 C 81.467 185.638, 83.530 184.938, 83.756 184.250 C 84.354 182.430, 73.122 182.517, 72.424 184.338 M 94.750 184.080 C 90.962 186.286, 94.185 193, 99.031 193 C 99.904 193, 101.474 193.626, 102.521 194.392 C 104.181 195.606, 104.245 196, 103.019 197.477 C 101.635 199.145, 99.534 199.145, 94.250 197.477 C 90.533 196.304, 91.605 198.937, 95.508 200.568 C 99.785 202.355, 103.589 201.557, 105.628 198.444 C 107.747 195.211, 106.007 192.382, 100.972 190.873 C 95.902 189.354, 94.431 187.717, 96.554 185.956 C 97.840 184.888, 98.780 184.880, 101.641 185.915 C 105.689 187.378, 107.403 186.499, 104.557 184.418 C 102.312 182.776, 97.286 182.603, 94.750 184.080 M 114 184.500 C 114 185.500, 115 186, 117 186 L 120 186 120 193.441 C 120 200.554, 121.106 203.772, 122.395 200.412 C 122.728 199.546, 123 195.948, 123 192.418 C 123 186.239, 123.093 186, 125.500 186 C 127.056 186, 128 185.433, 128 184.500 C 128 183.310, 126.556 183, 121 183 C 115.444 183, 114 183.310, 114 184.500 M 137.084 191.581 C 134.799 197.597, 134.125 200.525, 134.856 201.256 C 135.587 201.987, 136.270 201.502, 137.113 199.652 C 138.051 197.592, 139.031 197, 141.500 197 C 143.969 197, 144.949 197.592, 145.887 199.652 C 146.654 201.335, 147.444 201.956, 148.050 201.350 C 149.144 200.256, 143.127 183.876, 141.421 183.307 C 140.838 183.113, 138.887 186.836, 137.084 191.581 M 157 190.345 C 157 196.088, 157.382 198.025, 158.750 199.227 C 162.948 202.913, 168.763 202.011, 170.890 197.343 C 172.479 193.855, 172.369 182.712, 170.750 183.245 C 169.987 183.497, 169.305 186.271, 169 190.366 C 168.362 198.933, 165.394 201.394, 161 197 C 159.444 195.444, 159 193.667, 159 189 C 159 185.667, 158.556 183, 158 183 C 157.424 183, 157 186.115, 157 190.345 M 182.424 184.338 C 181.525 186.681, 182.454 201.500, 183.500 201.500 C 184.050 201.500, 184.640 199.813, 184.810 197.750 C 185.046 194.906, 185.560 194, 186.938 194 C 189.056 194, 190.632 195.679, 191.154 198.489 C 191.357 199.582, 192.323 200.631, 193.301 200.819 C 194.785 201.105, 194.967 200.695, 194.401 198.331 C 194.029 196.774, 193.362 195.035, 192.919 194.466 C 192.477 193.898, 192.532 192.773, 193.042 191.966 C 194.526 189.620, 194.147 186.443, 192.171 184.655 C 189.961 182.655, 183.154 182.434, 182.424 184.338 M 206.120 191.639 C 204.052 197.316, 203.288 200.688, 203.926 201.326 C 204.564 201.964, 205.325 201.381, 206.113 199.652 C 207.051 197.592, 208.031 197, 210.500 197 C 212.969 197, 213.949 197.592, 214.887 199.652 C 215.654 201.335, 216.444 201.956, 217.050 201.350 C 218.158 200.242, 212.117 183.872, 210.387 183.296 C 209.785 183.095, 207.865 186.850, 206.120 191.639 M 226.526 184.088 C 225.552 186.598, 226.386 201.500, 227.500 201.500 C 228.050 201.500, 228.635 198.632, 228.801 195.127 L 229.102 188.754 233.584 195.127 C 236.050 198.632, 238.502 201.650, 239.034 201.833 C 239.611 202.033, 240 198.314, 240 192.583 C 240 186.861, 239.597 183, 239 183 C 238.446 183, 237.976 185.786, 237.946 189.250 L 237.893 195.500 235.196 192.115 C 228.358 183.530, 227.170 182.430, 226.526 184.088 M 250.694 183.639 C 249.567 184.766, 251.043 186, 253.517 186 C 255.817 186, 255.928 186.318, 256.208 193.750 C 256.582 203.681, 258.403 203.510, 258.792 193.507 C 259.073 186.280, 259.176 186, 261.542 186 C 263.060 186, 264 185.426, 264 184.500 C 264 183.325, 262.630 183, 257.667 183 C 254.183 183, 251.046 183.288, 250.694 183.639 M 53 188.375 C 53 191.375, 54.291 192.360, 57.067 191.479 C 60.211 190.481, 59.242 186.585, 55.750 186.184 C 53.397 185.913, 53 186.229, 53 188.375 M 185 188.934 C 185 191.193, 185.460 191.996, 186.750 191.985 C 191.689 191.941, 192.578 186.742, 187.741 186.184 C 185.280 185.899, 185 186.180, 185 188.934 M 140.225 191.405 C 139.169 193.722, 139.255 194, 141.021 194 C 143.132 194, 143.277 193.562, 142.133 190.655 C 141.482 189, 141.286 189.077, 140.225 191.405 M 209.195 191.472 C 208.174 193.712, 208.268 194, 210.021 194 C 212.079 194, 212.554 192.421, 211.158 190.222 C 210.570 189.294, 210.031 189.637, 209.195 191.472" stroke="none" fill="#fbfbfb" fill-rule="evenodd"/></svg>